<?xml version="1.0" encoding="iso-8859-1"?>
<!-- Generator: Adobe Illustrator 19.0.0, SVG Export Plug-In . SVG Version: 6.00 Build 0)  -->
<svg version="1.1" id="Layer_1" xmlns="http://www.w3.org/2000/svg" xmlns:xlink="http://www.w3.org/1999/xlink" x="0px" y="0px"
	 viewBox="0 0 512.043 512.043" style="enable-background:new 0 0 512.043 512.043;" xml:space="preserve">
<g transform="translate(0 -1)">
	<g>
		<g>
			<path d="M443.218,136.923c-0.026-0.033-0.052-0.066-0.078-0.099c-0.435-0.522-0.891-1.036-1.388-1.533l-128-128
				c-0.497-0.497-1.011-0.953-1.533-1.388c-0.032-0.027-0.066-0.052-0.099-0.078c-4.375-3.606-9.535-5.071-14.529-4.782H85.333
				C73.551,1.043,64,10.594,64,22.376v469.333c0,11.782,9.551,21.333,21.333,21.333h341.333c11.782,0,21.333-9.551,21.333-21.333
				V151.452C448.289,146.459,446.825,141.298,443.218,136.923z M375.163,129.043H320V73.879L375.163,129.043z M106.667,470.376
				V43.709h170.667v106.667c0,11.782,9.551,21.333,21.333,21.333h106.667v298.667H106.667z"/>
			<path d="M362.667,257.043H320c-11.782,0-21.333,9.551-21.333,21.333c0,11.782,9.551,21.333,21.333,21.333h42.667
				c11.782,0,21.333-9.551,21.333-21.333C384,266.594,374.449,257.043,362.667,257.043z"/>
			<path d="M149.333,299.709h85.333c11.782,0,21.333-9.551,21.333-21.333c0-11.782-9.551-21.333-21.333-21.333h-85.333
				c-11.782,0-21.333,9.551-21.333,21.333C128,290.158,137.551,299.709,149.333,299.709z"/>
			<path d="M192,129.043c11.776,0,21.333-9.557,21.333-21.333S203.776,86.376,192,86.376s-21.333,9.557-21.333,21.333
				S180.224,129.043,192,129.043z"/>
			<path d="M192,150.376c-23.573,0-42.667,25.003-42.667,42.667h85.333C234.667,175.379,215.573,150.376,192,150.376z"/>
			<path d="M342.091,358.028c-4.011,20.075-63.637-0.427-70.997-9.408c-9.131-11.093-26.795-6.293-33.515,4.331
				c-10.176,16.085-60.309,15.765-69.824,0c-14.165-23.488-51.072-2.069-36.843,21.525c22.615,37.487,89.252,42.863,126.277,17.51
				c39.385,22.887,116.368,25.823,126.054-22.608C388.597,342.562,347.488,331.084,342.091,358.028z"/>
		</g>
	</g>
</g>
<g>
</g>
<g>
</g>
<g>
</g>
<g>
</g>
<g>
</g>
<g>
</g>
<g>
</g>
<g>
</g>
<g>
</g>
<g>
</g>
<g>
</g>
<g>
</g>
<g>
</g>
<g>
</g>
<g>
</g>
</svg>
